# xmcd
#
# Track frame offsets:
#	150
#	15708
#	45595
#	75673
#	96330
#	112148
#	129340
#	145573
#	169695
#	191220
#	214028
#	255178
#	274905
#	316193
#	330983
#
# Disc length: 4670 seconds
#
# Revision: 1
# Processed by: cddbd v1.5.1PL0 Copyright (c) Steve Scherf et al.
# Submitted via: CDex 1.50Beta5
#
DISCID=c8123c0f
DTITLE=44MAGNUM - THE BOOTLEG-MK1
DYEAR=1900
DGENRE=Rock
TTITLE0=44MAGNUM/NO STANDING STILL
TTITLE1=44MAGNUM/SATISFACTION
TTITLE2=44MAGNUM/I’M LONLEY MAN
TTITLE3=44MAGNUM/OW!
TTITLE4=44MAGNUM/STREET rock’N ROLLER
TTITLE5=44MAGNUM/I GIVE YOU MY LOVE
TTITLE6=44MAGNUM/BABY COMETOGETHER
TTITLE7=44MAGNUM/I’M ON FIRE
TTITLE8=44MAGNUM/IT’S TOO BAD
TTITLE9=44MAGNUM/LOVE DESIRE
TTITLE10=44MAGNUM/BACK STREET DELINQUENT
TTITLE11=YOUR HEART
TTITLE12=SATISFACTION
TTITLE13=NO STANDING STILL
TTITLE14=UK
EXTD=
EXTT0=
EXTT1=
EXTT2=
EXTT3=
EXTT4=
EXTT5=
EXTT6=
EXTT7=
EXTT8=
EXTT9=
EXTT10=
EXTT11=
EXTT12=
EXTT13=
EXTT14=
PLAYORDER=
